# xmcd
# 
# Track frame offsets:
#     150
#     20917
#     35592
#     52102
#     79080
#     96677
#     120305
#     140670
# 
# Disc length: 2190
# 
# Revision: 9
# Processed by: cddbd v1.5.2PL0 Copyright (c) Steve Scherf et al.
# Submitted via: BonkEnc v1.0.15
# 
DISCID=73088c08
DTITLE=Billy Joel - Turnstiles (CK_33848)
DYEAR=1976
DGENRE=Rock
TTITLE0=Say Goodbye To Hollywood
TTITLE1=Summer, Highland Falls
TTITLE2=All You Wanna Do Is Dance
TTITLE3=New York State Of Mind
TTITLE4=James
TTITLE5=Angry Young Man
TTITLE6=I've Loved These Days
TTITLE7=Miami 2017
EXTD=YEAR: 1976 ID3G: 17
EXTT0=
EXTT1=
EXTT2=
EXTT3=
EXTT4=
EXTT5=
EXTT6=
EXTT7=
PLAYORDER=
